<svg width="292" height="292" viewBox="0 0 292 292" fill="none" xmlns="http://www.w3.org/2000/svg" xmlns:xlink="http://www.w3.org/1999/xlink">
    <path d="M73.3661 54.4887L76.4364 49.304C79.4897 43.6907 81.0124 40.8873 83.9474 39.3219C86.8745 37.7499 90.5748 37.7499 97.9911 37.7499H101.265C108.682 37.7499 112.39 37.7499 115.317 39.3219C118.252 40.8938 119.775 43.6907 122.836 49.304L125.766 54.4887M139.081 57.3998H65.2408C57.5404 57.3998 49.8085 62.9673 43.4493 65.9737C40.7432 67.2509 39.394 67.8863 38.1474 67.6898C36.9087 67.4933 35.6148 66.2423 33.0191 63.7533C27.6146 58.5395 21.7604 57.3998 12.845 57.3998C8.4899 57.3998 4.95529 60.8189 4.95529 65.0436V95.6058C4.95529 99.8305 8.4899 103.25 12.845 103.25C21.7526 103.25 27.6067 102.11 33.027 96.8961C35.6148 94.4071 36.9087 93.1627 38.1553 92.9662C39.394 92.7631 40.7432 93.405 43.4415 94.6822C49.8164 97.6821 57.5483 103.25 65.2487 103.25H139.081C152.154 103.25 162.75 92.9858 162.75 80.3247C162.75 67.6636 152.154 57.3998 139.081 57.3998Z" stroke="black" stroke-width="8.26752" stroke-linecap="square" stroke-linejoin="round" transform="translate(66.96, 61.13)"/>
    <path d="M99.6322 37.7499V11.55C99.6322 9.81281 100.463 8.1468 101.943 6.91844C103.423 5.69009 105.429 5 107.522 5H115.412" stroke="black" stroke-width="8.26752" stroke-linecap="square" stroke-linejoin="round" transform="translate(66.96, 61.13)"/>

    <path d="M1 6.23306L38.8443 14.9664L75.233 3.32196L110.166 14.9664L146.555 3.32196L182.944 14.9664L219.332 3.32196L255.721 14.9664L292.11 4.77751"
          stroke="#8EE0FE"
          stroke-width="5.8222"
          transform="translate(0, 132.46)"
          stroke-linejoin="round">
        <!-- 파도 애니메이션을 위한 animate 태그 -->
        <animate
                attributeName="d"
                dur="2s"
                repeatCount="indefinite"
                values="
        M1 6.23306L38.8443 14.9664L75.233 3.32196L110.166 14.9664L146.555 3.32196L182.944 14.9664L219.332 3.32196L255.721 14.9664L292.11 4.77751;
        M1 8L38.8443 12L75.233 5L110.166 12L146.555 5L182.944 12L219.332 5L255.721 12L292.11 6;
        M1 6.23306L38.8443 14.9664L75.233 3.32196L110.166 14.9664L146.555 3.32196L182.944 14.9664L219.332 3.32196L255.721 14.9664L292.11 4.77751
      "
        />
    </path>

    <path transform="translate(14.56, 189.22)" d="M2.98323 37.0884C2.37481 37.0884 1.84644 36.8642 1.39813 36.4159C0.981846 35.9356 0.773702 35.3432 0.773702 34.6387V13.2159C0.773702 9.8856 1.67032 7.33985 3.46356 5.57863C5.28882 3.81742 7.91463 2.93681 11.341 2.93681C20.3072 2.93681 24.7903 8.74882 24.7903 20.3728C24.7903 26.0408 23.6695 30.2517 21.428 33.0056C19.1864 35.7274 15.744 37.0884 11.1008 37.0884H2.98323ZM7.69048 31.4205H11.1008C13.4705 31.4205 15.1836 30.5078 16.2404 28.6826C17.3291 26.8253 17.8735 23.8472 17.8735 19.7484C17.8735 15.8417 17.3772 13.0718 16.3845 11.4387C15.4238 9.77353 13.7747 8.94095 11.4371 8.94095C8.93934 8.94095 7.69048 9.85358 7.69048 11.6788V31.4205ZM41.1831 37.4726C37.9809 37.4726 35.4671 36.9443 33.6419 35.8876C31.8486 34.8308 30.5678 33.3738 29.7992 31.5165C29.0627 29.6593 28.6945 27.5298 28.6945 25.1281C28.6945 20.7091 29.6711 17.5389 31.6245 15.6176C33.5778 13.6642 36.2037 12.6875 39.5019 12.6875C41.4873 12.6875 43.2485 13.0238 44.7856 13.6962C46.3226 14.3687 47.5235 15.3294 48.3881 16.5782C49.2527 17.7951 49.685 19.2841 49.685 21.0453C49.685 26.1688 46.0344 28.7306 38.7334 28.7306H35.9475C36.2037 29.7233 36.6199 30.5078 37.1963 31.0842C37.8048 31.6286 38.8615 31.9008 40.3665 31.9008C41.1991 31.9008 41.8716 31.8528 42.3839 31.7567C42.8963 31.6606 43.3766 31.5646 43.8249 31.4685C44.3052 31.3724 44.8496 31.3244 45.458 31.3244C46.3226 31.3244 47.0111 31.4845 47.5235 31.8047C48.0358 32.0929 48.292 32.7014 48.292 33.63C48.292 34.9429 47.7156 35.9196 46.5628 36.56C45.442 37.1684 43.6488 37.4726 41.1831 37.4726ZM35.6112 25.1762C35.8674 24.8239 36.1556 24.5998 36.4758 24.5037C36.7961 24.3756 37.2924 24.3116 37.9649 24.3116C39.8542 24.3116 41.1511 24.1354 41.8556 23.7832C42.5921 23.3989 42.9603 22.7265 42.9603 21.7658C42.9603 20.549 42.6241 19.6203 41.9516 18.9799C41.2792 18.3074 40.4306 17.9712 39.4059 17.9712C38.221 17.9712 37.2924 18.4675 36.6199 19.4602C35.9475 20.4529 35.6112 22.3582 35.6112 25.1762ZM65.1997 37.4726C61.9975 37.4726 59.4837 36.9443 57.6585 35.8876C55.8652 34.8308 54.5843 33.3738 53.8158 31.5165C53.0793 29.6593 52.711 27.5298 52.711 25.1281C52.711 20.7091 53.6877 17.5389 55.6411 15.6176C57.5944 13.6642 60.2202 12.6875 63.5185 12.6875C65.5039 12.6875 67.2651 13.0238 68.8021 13.6962C70.3392 14.3687 71.54 15.3294 72.4046 16.5782C73.2692 17.7951 73.7015 19.2841 73.7015 21.0453C73.7015 26.1688 70.051 28.7306 62.75 28.7306H59.9641C60.2202 29.7233 60.6365 30.5078 61.2129 31.0842C61.8213 31.6286 62.8781 31.9008 64.3831 31.9008C65.2157 31.9008 65.8881 31.8528 66.4005 31.7567C66.9128 31.6606 67.3932 31.5646 67.8415 31.4685C68.3218 31.3724 68.8662 31.3244 69.4746 31.3244C70.3392 31.3244 71.0277 31.4845 71.54 31.8047C72.0524 32.0929 72.3086 32.7014 72.3086 33.63C72.3086 34.9429 71.7322 35.9196 70.5794 36.56C69.4586 37.1684 67.6654 37.4726 65.1997 37.4726ZM59.6278 25.1762C59.884 24.8239 60.1722 24.5998 60.4924 24.5037C60.8126 24.3756 61.309 24.3116 61.9814 24.3116C63.8707 24.3116 65.1676 24.1354 65.8721 23.7832C66.6086 23.3989 66.9769 22.7265 66.9769 21.7658C66.9769 20.549 66.6407 19.6203 65.9682 18.9799C65.2957 18.3074 64.4471 17.9712 63.4224 17.9712C62.2376 17.9712 61.309 18.4675 60.6365 19.4602C59.9641 20.4529 59.6278 22.3582 59.6278 25.1762ZM81.2964 48.136C78.9588 48.136 77.79 46.8871 77.79 44.3894V25.4644C77.79 21.1094 78.7506 17.8591 80.672 15.7136C82.5933 13.5681 85.2831 12.4954 88.7415 12.4954C92.264 12.4954 95.0339 13.6162 97.0513 15.8577C99.1007 18.0993 100.125 21.3815 100.125 25.7045C100.125 28.5865 99.7091 30.8921 98.8765 32.6213C98.044 34.3185 96.8912 35.5513 95.4181 36.3198C93.9451 37.0884 92.248 37.4726 90.3266 37.4726C88.6615 37.4726 87.2845 37.2325 86.1958 36.7521C85.139 36.2718 84.3065 35.5353 83.6981 34.5426C83.9222 35.1831 84.0823 35.8075 84.1784 36.4159C84.3065 37.0243 84.3865 37.7288 84.4186 38.5294C84.4826 39.3299 84.5146 40.3546 84.5146 41.6035V44.3894C84.5146 46.8871 83.4419 48.136 81.2964 48.136ZM89.0778 31.8528C90.4227 31.8528 91.4634 31.3884 92.1999 30.4598C92.9685 29.4991 93.3527 27.7059 93.3527 25.0801C93.3527 22.4543 92.9685 20.6771 92.1999 19.7484C91.4634 18.7877 90.4227 18.3074 89.0778 18.3074C87.7328 18.3074 86.6761 18.7877 85.9076 19.7484C85.1711 20.6771 84.8028 22.4543 84.8028 25.0801C84.8028 27.7059 85.1711 29.4991 85.9076 30.4598C86.6761 31.3884 87.7328 31.8528 89.0778 31.8528ZM134.82 21.6697C134.916 21.0613 135.236 20.565 135.78 20.1807C136.357 19.7964 136.965 19.6043 137.606 19.6043C138.406 19.6043 139.079 19.8925 139.623 20.4689C140.199 21.0133 140.487 21.6857 140.487 22.4863C140.487 22.6144 140.471 22.7585 140.439 22.9186C140.439 23.0467 140.423 23.1748 140.391 23.3029C140.167 24.7439 139.799 26.0728 139.287 27.2896C138.774 28.5065 138.15 29.6112 137.413 30.6039L139.863 33.4859C140.215 33.9342 140.391 34.4946 140.391 35.1671C140.391 35.9676 140.103 36.6401 139.527 37.1844C138.982 37.7608 138.31 38.049 137.509 38.049C137.029 38.049 136.581 37.921 136.165 37.6648C135.78 37.4406 135.444 37.1684 135.156 36.8482L133.331 34.6387C131.601 35.8555 129.872 36.7361 128.143 37.2805C126.446 37.8249 125.085 38.0971 124.06 38.0971C120.666 38.0971 118.216 37.3606 116.711 35.8876C115.238 34.3825 114.502 32.3171 114.502 29.6913C114.502 28.5705 114.726 27.4017 115.174 26.1849C115.622 24.936 116.327 23.7512 117.287 22.6304C118.28 21.5096 119.561 20.597 121.13 19.8925L120.169 18.7397C119.273 17.6189 118.568 16.3701 118.056 14.9931C117.576 13.6162 117.336 12.3353 117.336 11.1505C117.336 8.39658 118.2 6.34716 119.929 5.00223C121.691 3.62528 123.916 2.93681 126.606 2.93681C128.239 2.93681 129.728 3.27304 131.073 3.9455C132.418 4.58595 133.491 5.51459 134.291 6.73143C135.124 7.94827 135.54 9.43729 135.54 11.1985C135.54 12.9917 135.028 14.817 134.003 16.6743C132.978 18.5316 131.585 20.1487 129.824 21.5256L133.523 25.9447C133.811 25.3042 134.067 24.6318 134.291 23.9273C134.515 23.2228 134.691 22.4703 134.82 21.6697ZM125.021 15.8097L126.174 17.1546C127.551 16.1619 128.495 15.1212 129.008 14.0325C129.52 12.9117 129.776 12.0311 129.776 11.3906C129.776 10.8142 129.552 10.2058 129.104 9.56538C128.687 8.89292 127.855 8.55669 126.606 8.55669C125.517 8.55669 124.653 8.78084 124.012 9.22915C123.404 9.67746 123.099 10.3339 123.099 11.1985C123.099 11.4547 123.164 11.9831 123.292 12.7836C123.452 13.5842 124.028 14.5929 125.021 15.8097ZM121.178 29.6913C121.178 31.5165 122.123 32.4292 124.012 32.4292C124.877 32.4292 125.821 32.2691 126.846 31.9488C127.871 31.5966 128.863 31.0842 129.824 30.4118L124.685 24.1675C123.372 24.8399 122.459 25.7045 121.947 26.7613C121.434 27.818 121.178 28.7947 121.178 29.6913ZM182.31 37.4726C180.933 37.4726 179.748 37.0724 178.756 36.2718C177.763 35.4713 177.042 34.1103 176.594 32.189L174.673 24.3116C174.289 25.7526 173.84 27.1615 173.328 28.5385C172.816 29.8834 172.319 31.0842 171.839 32.141C171.038 34.0303 170.158 35.3912 169.197 36.2238C168.268 37.0564 167.196 37.4726 165.979 37.4726C164.602 37.4726 163.433 37.0083 162.472 36.0797C161.544 35.151 160.855 33.8541 160.407 32.189L154.067 8.07635C153.554 6.44323 153.634 5.17835 154.307 4.28174C155.011 3.38512 155.94 2.93681 157.093 2.93681C158.149 2.93681 158.966 3.28905 159.542 3.99354C160.151 4.69802 160.663 5.89885 161.079 7.59602L166.651 30.3637L169.966 19.8925C170.606 17.9071 171.006 16.3381 171.166 15.1853C171.359 14.0004 171.455 13.0878 171.455 12.4474C171.455 11.4227 171.343 10.5581 171.118 9.85358C170.926 9.14909 170.75 8.49264 170.59 7.88422C170.206 6.21907 170.318 5.06628 170.926 4.42584C171.567 3.78539 172.383 3.46517 173.376 3.46517C174.401 3.46517 175.233 3.78539 175.874 4.42584C176.546 5.03426 177.042 6.09099 177.363 7.59602L182.598 30.3157C184.135 25.8326 185.224 22.2141 185.865 19.4602C186.537 16.7063 186.873 14.6089 186.873 13.1679C186.873 11.6949 186.809 10.5581 186.681 9.75752C186.553 8.95696 186.409 8.30051 186.249 7.78816C186.121 7.24378 186.057 6.6994 186.057 6.15503C186.057 5.35448 186.345 4.61797 186.921 3.9455C187.53 3.27304 188.522 2.93681 189.899 2.93681C190.956 2.93681 191.773 3.32107 192.349 4.0896C192.925 4.85813 193.31 5.80279 193.502 6.92356C193.726 8.04433 193.838 9.13308 193.838 10.1898C193.838 11.6949 193.662 13.424 193.31 15.3774C192.957 17.3307 192.493 19.3481 191.917 21.4296C191.372 23.479 190.764 25.4483 190.091 27.3376C189.419 29.227 188.747 30.8601 188.074 32.237C187.177 34.1263 186.281 35.4713 185.384 36.2718C184.488 37.0724 183.463 37.4726 182.31 37.4726ZM201.661 8.55669C200.476 8.55669 199.483 8.17242 198.683 7.40389C197.882 6.63536 197.482 5.69071 197.482 4.56993C197.482 3.38512 197.882 2.40844 198.683 1.63991C199.483 0.871383 200.476 0.487118 201.661 0.487118C202.878 0.487118 203.87 0.871383 204.639 1.63991C205.439 2.40844 205.84 3.38512 205.84 4.56993C205.84 5.69071 205.439 6.63536 204.639 7.40389C203.87 8.17242 202.878 8.55669 201.661 8.55669ZM205.119 34.2544C205.119 36.3999 203.998 37.4726 201.757 37.4726C200.668 37.4726 199.803 37.2165 199.163 36.7041C198.523 36.1597 198.202 35.3432 198.202 34.2544V15.9538C198.202 14.9291 198.459 14.1285 198.971 13.5521C199.515 12.9757 200.412 12.6875 201.661 12.6875C202.91 12.6875 203.79 12.9757 204.303 13.5521C204.847 14.1285 205.119 14.9291 205.119 15.9538V34.2544ZM221.094 37.4726C217.571 37.4726 214.786 36.3519 212.736 34.1103C210.719 31.8688 209.71 28.5865 209.71 24.2635C209.71 21.3815 210.126 19.092 210.959 17.3948C211.791 15.6976 212.944 14.4968 214.417 13.7923C215.922 13.0558 217.619 12.6875 219.509 12.6875C221.206 12.6875 222.583 12.8957 223.64 13.312C224.696 13.7283 225.529 14.4327 226.137 15.4254C225.913 14.753 225.737 14.1285 225.609 13.5521C225.513 12.9437 225.433 12.2392 225.369 11.4387C225.337 10.6381 225.321 9.61342 225.321 8.36455V4.2337C225.321 1.73598 226.394 0.487118 228.539 0.487118C230.877 0.487118 232.045 1.73598 232.045 4.2337V24.5517C232.045 28.8747 231.085 32.1089 229.163 34.2544C227.242 36.3999 224.552 37.4726 221.094 37.4726ZM220.758 31.7087C222.103 31.7087 223.143 31.2283 223.88 30.2677C224.648 29.307 225.033 27.5138 225.033 24.888C225.033 23.1267 224.856 21.7978 224.504 20.9012C224.184 19.9726 223.704 19.3321 223.063 18.9799C222.423 18.6276 221.654 18.4515 220.758 18.4515C219.861 18.4515 219.093 18.6276 218.452 18.9799C217.812 19.3321 217.315 19.9726 216.963 20.9012C216.643 21.7978 216.483 23.1267 216.483 24.888C216.483 27.5138 216.851 29.307 217.587 30.2677C218.356 31.2283 219.413 31.7087 220.758 31.7087ZM249.077 37.4726C245.874 37.4726 243.361 36.9443 241.535 35.8876C239.742 34.8308 238.461 33.3738 237.693 31.5165C236.956 29.6593 236.588 27.5298 236.588 25.1281C236.588 20.7091 237.565 17.5389 239.518 15.6176C241.471 13.6642 244.097 12.6875 247.395 12.6875C249.381 12.6875 251.142 13.0238 252.679 13.6962C254.216 14.3687 255.417 15.3294 256.282 16.5782C257.146 17.7951 257.578 19.2841 257.578 21.0453C257.578 26.1688 253.928 28.7306 246.627 28.7306H243.841C244.097 29.7233 244.513 30.5078 245.09 31.0842C245.698 31.6286 246.755 31.9008 248.26 31.9008C249.093 31.9008 249.765 31.8528 250.277 31.7567C250.79 31.6606 251.27 31.5646 251.718 31.4685C252.199 31.3724 252.743 31.3244 253.352 31.3244C254.216 31.3244 254.905 31.4845 255.417 31.8047C255.929 32.0929 256.185 32.7014 256.185 33.63C256.185 34.9429 255.609 35.9196 254.456 36.56C253.336 37.1684 251.542 37.4726 249.077 37.4726ZM243.505 25.1762C243.761 24.8239 244.049 24.5998 244.369 24.5037C244.69 24.3756 245.186 24.3116 245.858 24.3116C247.748 24.3116 249.045 24.1354 249.749 23.7832C250.486 23.3989 250.854 22.7265 250.854 21.7658C250.854 20.549 250.518 19.6203 249.845 18.9799C249.173 18.3074 248.324 17.9712 247.299 17.9712C246.115 17.9712 245.186 18.4675 244.513 19.4602C243.841 20.4529 243.505 22.3582 243.505 25.1762Z" fill="black"/>
</svg>
