<svg width="179" height="202" viewBox="0 0 179 202" fill="none" xmlns="http://www.w3.org/2000/svg">
    <path
        d="M175.887 33.4435V56.2761C175.887 58.2946 175.085 60.2305 173.658 61.6578C172.23 63.0851 170.295 63.887 168.276 63.887H122.611C120.592 63.887 118.656 63.0851 117.229 61.6578C115.802 60.2305 115 58.2946 115 56.2761V10.6109C115 8.59234 115.802 6.65649 117.229 5.22917C118.656 3.80186 120.592 3 122.611 3H156.86"
        stroke="black"
        stroke-width="5.19185"
        stroke-linecap="round"
        stroke-linejoin="round"
        stroke-dasharray="260"
        stroke-dashoffset="260"
    >
    <animate
        attributeName="stroke-dashoffset"
        from="260"
        to="0"
        values="0; 0; 260; 0; 0"
        keyTimes="0; 0.39; 0.4; 0.6; 1"
        dur="10s"
        fill="freeze"
        repeatCount="indefinite"
    />
</path>
<path d="M133.928 29.638L145.344 41.0543L175.787 10.6108"
      stroke="#06963F"
      stroke-width="5.19185"
      stroke-linecap="round"
      stroke-linejoin="round"
      stroke-dasharray="100"
      stroke-dashoffset="100">
    <animate
            attributeName="stroke-dashoffset"
            from="100"
            to="0"
            values="0; 0; 100; 100; 0; 0"
            keyTimes="0; 0.39; 0.4; 0.59; 0.65; 1"
            dur="10s"
            fill="freeze"
            repeatCount="indefinite"
    />
</path>
<path d="M77.4633 199.113H99.8023C101.764 199.113 103.707 198.725 105.519 197.972C107.33 197.219 108.975 196.116 110.359 194.725C111.743 193.334 112.839 191.683 113.583 189.868C114.327 188.053 114.705 186.108 114.695 184.146V114.3C114.695 111.929 113.578 109.745 111.716 108.311L63.1912 76.4971C61.9043 75.5256 60.3358 75 58.7234 75C57.111 75 55.5425 75.5256 54.2556 76.4971L5.97871 108.311C4.11713 109.745 3.00019 111.929 3.00019 114.3V184.146C2.99038 186.108 3.36834 188.053 4.11238 189.868C4.85641 191.683 5.95183 193.334 7.33572 194.725C8.71961 196.116 10.3647 197.219 12.1764 197.972C13.9881 198.725 15.9308 199.113 17.8928 199.113H40.2318V142.025C40.2318 139.294 42.4656 137.06 45.196 137.06H72.4991C75.2294 137.06 77.4633 139.294 77.4633 142.025V199.113Z" fill="#94C1A3"/>
<path d="M99.8023 199.113H17.8928C15.9308 199.113 13.9881 198.725 12.1764 197.972C10.3647 197.219 8.71961 196.115 7.33572 194.725C5.95183 193.334 4.85641 191.683 4.11238 189.868C3.36834 188.052 2.99038 186.108 3.00019 184.146V114.299C3.00019 111.929 4.11713 109.745 5.97871 108.311L54.2556 76.503C55.5425 75.5315 57.111 75.006 58.7234 75.006C60.3358 75.006 61.9043 75.5315 63.1912 76.503L111.716 108.311C113.578 109.745 114.695 111.929 114.695 114.299V184.146C114.705 186.108 114.327 188.052 113.583 189.868C112.839 191.683 111.743 193.334 110.359 194.725C108.975 196.115 107.33 197.219 105.519 197.972C103.707 198.725 101.764 199.113 99.8023 199.113Z" stroke="black" stroke-width="5.19185" stroke-miterlimit="10"/>
<path d="M45.196 137.06H72.4991C75.2294 137.06 77.4633 139.294 77.4633 142.025V199.113H40.2318V142.025C40.2318 139.294 42.4656 137.06 45.196 137.06Z" stroke="black" stroke-width="5.19185" stroke-miterlimit="10"/>
</svg>
