<svg width="179" height="191" viewBox="0 0 179 191" fill="none" xmlns="http://www.w3.org/2000/svg">
<path d="M133.928 29.638L145.344 41.0543L175.787 10.6108" stroke="#06963F" stroke-width="5.19185" stroke-linecap="round" stroke-linejoin="round"/>
<path d="M175.787 33.4435V56.2761C175.787 58.2946 174.986 60.2305 173.558 61.6578C172.131 63.0851 170.195 63.887 168.176 63.887H122.511C120.493 63.887 118.557 63.0851 117.13 61.6578C115.702 60.2305 114.9 58.2946 114.9 56.2761V10.6109C114.9 8.59234 115.702 6.65649 117.13 5.22917C118.557 3.80186 120.493 3 122.511 3H156.76" stroke="black" stroke-width="5.19185" stroke-linecap="round" stroke-linejoin="round"/>
<path d="M77.4633 188H99.8023C101.764 188 103.707 187.612 105.519 186.859C107.33 186.106 108.975 185.003 110.359 183.612C111.743 182.221 112.839 180.57 113.583 178.755C114.327 176.939 114.705 174.995 114.695 173.033V103.186C114.695 100.816 113.578 98.6318 111.716 97.1984L63.1912 65.384C61.9043 64.4125 60.3358 63.887 58.7234 63.887C57.111 63.887 55.5425 64.4125 54.2556 65.384L5.97871 97.1984C4.11713 98.6318 3.00019 100.816 3.00019 103.186V173.033C2.99038 174.995 3.36834 176.939 4.11238 178.755C4.85641 180.57 5.95183 182.221 7.33572 183.612C8.71961 185.003 10.3647 186.106 12.1764 186.859C13.9881 187.612 15.9308 188 17.8928 188H40.2318V130.912C40.2318 128.181 42.4656 125.947 45.196 125.947H72.4991C75.2294 125.947 77.4633 128.181 77.4633 130.912V188Z" fill="#94C1A3"/>
<path d="M99.8023 188H17.8928C15.9308 188 13.9881 187.612 12.1764 186.859C10.3647 186.106 8.71961 185.002 7.33572 183.612C5.95183 182.221 4.85641 180.57 4.11238 178.755C3.36834 176.939 2.99038 174.995 3.00019 173.033V103.186C3.00019 100.816 4.11713 98.6316 5.97871 97.1982L54.2556 65.39C55.5425 64.4185 57.111 63.8929 58.7234 63.8929C60.3358 63.8929 61.9043 64.4185 63.1912 65.39L111.716 97.1982C113.578 98.6316 114.695 100.816 114.695 103.186V173.033C114.705 174.995 114.327 176.939 113.583 178.755C112.839 180.57 111.743 182.221 110.359 183.612C108.975 185.002 107.33 186.106 105.519 186.859C103.707 187.612 101.764 188 99.8023 188Z" stroke="black" stroke-width="5.19185" stroke-miterlimit="10"/>
<path d="M45.196 125.947H72.4991C75.2294 125.947 77.4633 128.181 77.4633 130.912V188H40.2318V130.912C40.2318 128.181 42.4656 125.947 45.196 125.947Z" stroke="black" stroke-width="5.19185" stroke-miterlimit="10"/>
</svg>
