<svg width="37" height="41" viewBox="0 0 37 41" fill="none" xmlns="http://www.w3.org/2000/svg">
    <path transform="translate(0, 0)" d="M31.1099 39.6048H5.63234C5.02206 39.6048 4.4178 39.4842 3.85427 39.25C3.29075 39.0157 2.77906 38.6724 2.3486 38.2398C1.91815 37.8072 1.57743 37.2938 1.346 36.7291C1.11457 36.1645 0.997007 35.5596 1.00006 34.9493V13.2239C1.00006 12.4866 1.34748 11.8072 1.92651 11.3614L16.9428 1.46761C17.3431 1.16543 17.831 1.00195 18.3325 1.00195C18.834 1.00195 19.3219 1.16543 19.7222 1.46761L34.8157 11.3614C35.3947 11.8072 35.7421 12.4866 35.7421 13.2239V34.9493C35.7452 35.5596 35.6276 36.1645 35.3962 36.7291C35.1648 37.2938 34.8241 37.8072 34.3936 38.2398C33.9632 38.6724 33.4515 39.0157 32.8879 39.25C32.3244 39.4842 31.7201 39.6048 31.1099 39.6048Z" stroke="black" stroke-width="1.6149" stroke-miterlimit="10"/>
    <path transform="translate(1, 1)" d="M23.1614 38.6048H30.1099C30.7201 38.6048 31.3244 38.4842 31.8879 38.2499C32.4515 38.0157 32.9632 37.6724 33.3936 37.2398C33.8241 36.8072 34.1648 36.2938 34.3962 35.7291C34.6276 35.1644 34.7452 34.5596 34.7421 33.9493V12.2239C34.7421 11.4866 34.3947 10.8072 33.8157 10.3614L18.7222 0.465655C18.3219 0.163475 17.834 0 17.3325 0C16.831 0 16.3431 0.163475 15.9428 0.465655L0.926514 10.3614C0.347479 10.8072 5.79089e-05 11.4866 5.79089e-05 12.2239V33.9493C-0.00299346 34.5596 0.114572 35.1644 0.345999 35.7291C0.577426 36.2938 0.918154 36.8072 1.3486 37.2398C1.77906 37.6724 2.29075 38.0157 2.85427 38.2499C3.4178 38.4842 4.02206 38.6048 4.63234 38.6048H11.5808V20.8477C11.5808 19.9984 12.2756 19.3036 13.1248 19.3036H21.6174C22.4666 19.3036 23.1614 19.9984 23.1614 20.8477V38.6048Z" fill="#94C1A3"/>
    <path transform="translate(11, 19)" d="M3.1249 1.30359H11.6174C12.4667 1.30359 13.1615 1.99843 13.1615 2.84768V20.6047H1.58081V2.84768C1.58081 1.99843 2.27565 1.30359 3.1249 1.30359Z" stroke="black" stroke-width="1.6149" stroke-miterlimit="10"/>
</svg>
